<?xml version="1.0" standalone="no"?>
<!DOCTYPE svg PUBLIC "-//W3C//DTD SVG 20010904//EN"
 "http://www.w3.org/TR/2001/REC-SVG-20010904/DTD/svg10.dtd">
<svg version="1.0" xmlns="http://www.w3.org/2000/svg"
 width="389.000000pt" height="389.000000pt" viewBox="0 0 389.000000 389.000000"
 preserveAspectRatio="xMidYMid meet">
<metadata>
Created by potrace 1.11, written by Peter Selinger 2001-2013
</metadata>
<g transform="translate(0.000000,389.000000) scale(0.100000,-0.100000)"
fill="#000000" stroke="none">
<path d="M1858 3564 c-2 -1 -30 -4 -63 -8 -103 -10 -149 -17 -215 -32 -14 -3
-33 -7 -42 -7 -10 -1 -18 -5 -18 -10 0 -4 -5 -5 -10 -2 -6 4 -16 2 -23 -3 -7
-6 -14 -10 -17 -11 -36 -1 -257 -100 -345 -154 -62 -38 -111 -72 -117 -81 -5
-7 -8 -7 -8 -1 0 7 -3 7 -8 0 -4 -5 -27 -25 -52 -44 -25 -19 -54 -42 -65 -52
-61 -56 -75 -71 -75 -81 0 -6 -3 -9 -6 -5 -3 3 -17 -6 -30 -21 -13 -15 -29
-34 -37 -42 -46 -53 -98 -122 -121 -162 -16 -27 -31 -48 -35 -48 -4 0 -13 -16
-21 -35 -8 -19 -17 -35 -22 -35 -4 0 -8 -9 -8 -20 0 -11 -4 -20 -10 -20 -5 0
-10 -7 -10 -15 0 -9 -7 -26 -15 -39 -37 -56 -110 -267 -130 -371 -27 -149 -27
-492 0 -615 4 -14 8 -36 11 -50 9 -45 42 -164 55 -195 7 -16 13 -32 14 -35 13
-37 88 -203 95 -210 3 -3 13 -22 24 -42 10 -20 27 -46 38 -58 10 -11 16 -20
12 -20 -6 0 33 -56 61 -87 5 -6 19 -23 30 -38 54 -70 215 -221 294 -274 20
-14 38 -27 41 -31 25 -31 311 -179 379 -196 9 -2 46 -12 84 -23 37 -11 80 -22
95 -25 15 -3 38 -7 52 -10 14 -3 36 -8 50 -11 116 -25 434 -25 519 -1 9 3 33
7 55 11 21 3 41 7 45 10 4 2 18 6 32 9 13 3 34 7 47 10 12 4 30 8 40 10 9 2
40 13 67 23 73 29 90 34 94 33 2 -1 7 2 10 7 3 4 40 24 81 43 41 19 80 38 85
43 23 17 86 57 91 57 3 0 12 6 19 13 32 28 45 37 45 32 0 -5 33 22 114 95 47
42 70 66 137 143 16 18 35 40 43 49 9 10 34 46 57 80 23 35 55 82 71 106 16
23 27 42 24 42 -3 0 8 23 24 50 17 28 30 55 30 60 0 6 5 10 11 10 5 0 8 4 5 8
-2 4 1 21 9 37 37 84 45 107 68 195 14 52 28 115 32 140 3 25 9 63 13 85 12
74 6 460 -8 460 -1 0 -3 9 -4 20 -2 18 -7 42 -20 110 -6 32 -37 127 -52 162
-8 17 -14 34 -14 38 0 22 -135 281 -172 330 -74 98 -146 183 -199 235 -80 79
-224 192 -233 183 -3 -3 -6 -2 -6 4 0 6 -21 24 -47 39 -27 15 -50 30 -53 33
-3 3 -10 7 -16 8 -7 1 -35 16 -63 33 -29 16 -57 30 -64 30 -7 0 -21 6 -32 13
-11 8 -29 16 -40 20 -11 3 -51 15 -90 27 -154 47 -299 70 -465 74 -66 1 -121
2 -122 0z"/>
</g>
</svg>
